HIERARCHY
ROOT Hips
{
	OFFSET 0.000000 0.000000 0.000000
	CHANNELS 6 Xposition Yposition Zposition Zrotation Yrotation Xrotation 
	JOINT LowerBack
	{
		OFFSET 0.000000 0.000000 0.000000
		CHANNELS 3 Zrotation Yrotation Xrotation
		JOINT Spine
		{
			OFFSET 0.028270 2.035590 -0.193380
			CHANNELS 3 Zrotation Yrotation Xrotation
			JOINT Spine1
			{
				OFFSET 0.056720 2.048850 -0.042750
				CHANNELS 3 Zrotation Yrotation Xrotation
				JOINT Neck
				{
					OFFSET 0.000000 0.000000 0.000000
					CHANNELS 3 Zrotation Yrotation Xrotation
					JOINT Neck1
					{
						OFFSET -0.054170 1.746240 0.172020
						CHANNELS 3 Zrotation Yrotation Xrotation
						JOINT Head
						{
							OFFSET 0.104070 1.761360 -0.123970
							CHANNELS 3 Zrotation Yrotation Xrotation
							End Site
							{
								OFFSET 0.000000 0.000000 0.000000
							}
						}
					}
				}
				JOINT LeftShoulder
				{
					OFFSET 0.000000 0.000000 0.000000
					CHANNELS 3 Zrotation Yrotation Xrotation
					JOINT LeftArm
					{
						OFFSET 3.362410 1.200890 -0.311210
						CHANNELS 3 Zrotation Yrotation Xrotation
						JOINT LeftForeArm
						{
							OFFSET 4.983000 -0.000000 -0.000000
							CHANNELS 3 Zrotation Yrotation Xrotation
							JOINT LeftHand
							{
								OFFSET 3.483560 -0.000000 -0.000000
								CHANNELS 3 Zrotation Yrotation Xrotation
								JOINT LeftFingerBase
								{
									OFFSET 0.000000 0.000000 0.000000
									CHANNELS 3 Zrotation Yrotation Xrotation
									JOINT LeftHandIndex1
									{
										OFFSET 0.715260 -0.000000 -0.000000
										CHANNELS 3 Zrotation Yrotation Xrotation
										End Site
										{
											OFFSET 0.000000 0.000000 0.000000
										}
									}
								}
								JOINT LThumb
								{
									OFFSET 0.000000 0.000000 0.000000
									CHANNELS 3 Zrotation Yrotation Xrotation
									End Site
									{
										OFFSET 0.000000 0.000000 0.000000
									}
								}
							}
						}
					}
				}
				JOINT RightShoulder
				{
					OFFSET 0.000000 0.000000 0.000000
					CHANNELS 3 Zrotation Yrotation Xrotation
					JOINT RightArm
					{
						OFFSET -3.136600 1.374050 -0.404650
						CHANNELS 3 Zrotation Yrotation Xrotation
						JOINT RightForeArm
						{
							OFFSET -5.241900 -0.000000 -0.000000
							CHANNELS 3 Zrotation Yrotation Xrotation
							JOINT RightHand
							{
								OFFSET -3.444170 -0.000000 -0.000000
								CHANNELS 3 Zrotation Yrotation Xrotation
								JOINT RightFingerBase
								{
									OFFSET 0.000000 0.000000 0.000000
									CHANNELS 3 Zrotation Yrotation Xrotation
									JOINT RightHandIndex1
									{
										OFFSET -0.622530 -0.000000 -0.000000
										CHANNELS 3 Zrotation Yrotation Xrotation
										End Site
										{
											OFFSET 0.000000 0.000000 0.000000
										}
									}
								}
								JOINT RThumb
								{
									OFFSET 0.000000 0.000000 0.000000
									CHANNELS 3 Zrotation Yrotation Xrotation
									End Site
									{
										OFFSET 0.000000 0.000000 0.000000
									}
								}
							}
						}
					}
				}
			}
		}
	}
}
}
MOTION
Frames: 15
Frame Time: 0.008333
3.018595 15.771599 0.960400 -162.601838 -89.736632 -154.370224 3.331387 -3.551002 2.753832 0.499926 -3.702749 -3.005584 -4.515915 -3.669517 -2.835000 9.260046 -13.154540 -5.640102 -2.501591 -0.183253 0.095898 0.000000 0.000000 0.000000 14.843605 -3.414412 -0.410328 -83.901005 -5.961291 5.704965 178.960258 -54.493998 179.836690 13.210993 -2.799434 -0.421118 -0.247719 0.804738 0.000000 0.000000 0.000000 0.000000 0.000000 0.000000 0.000000 0.722222 -10.136890 0.927632 76.492757 16.831890 28.742368 179.697345 64.054146 179.834959 -16.893930 8.140608 -1.366244 0.455797 -0.816909 -0.000000 0.000000 0.000000 0.000000 0.000000 0.000000 0.000000 
3.014183 15.779605 0.970056 -165.465755 -89.479210 -151.659064 3.570139 -3.622271 2.639209 0.552770 -3.791422 -3.039985 -4.535604 -3.764475 -2.872323 9.378708 -13.244010 -5.581665 -2.499544 -0.184352 0.120566 0.000000 0.000000 0.000000 15.096945 -3.768343 -0.482151 -83.911458 -6.263997 5.019697 178.924201 -54.730472 179.835938 13.251259 -2.707809 -0.411225 -0.242565 0.802681 0.000000 0.000000 0.000000 0.000000 0.000000 0.000000 0.000000 0.823154 -10.294678 0.953472 76.423570 16.940654 28.852097 179.687543 64.109286 179.835258 -16.889803 8.108639 -1.360852 0.456599 -0.815452 -0.000000 0.000000 0.000000 0.000000 0.000000 0.000000 0.000000 
3.008870 15.788809 0.980370 -168.768077 -89.212170 -148.525007 3.798289 -3.697931 2.514581 0.602094 -3.884292 -3.075021 -4.563002 -3.863967 -2.905633 9.496270 -13.332575 -5.517745 -2.495487 -0.185409 0.147169 0.000000 0.000000 0.000000 15.361729 -4.111493 -0.561290 -83.835937 -6.678410 4.325921 178.898647 -55.020983 179.835005 13.316775 -2.561034 -0.395236 -0.239040 0.799263 0.000000 0.000000 0.000000 0.000000 0.000000 0.000000 0.000000 0.914831 -10.457536 0.976636 76.378496 17.038162 28.954063 179.682598 64.168775 179.835513 -16.883044 8.082268 -1.356063 0.456720 -0.814085 -0.000000 0.000000 0.000000 0.000000 0.000000 0.000000 0.000000 
3.002786 15.799371 0.990927 -172.416306 -88.940706 -145.064605 4.011210 -3.780631 2.381666 0.646541 -3.983649 -3.109135 -4.600493 -3.970142 -2.930950 9.616070 -13.421904 -5.451063 -2.489600 -0.186394 0.174828 0.000000 0.000000 0.000000 15.642250 -4.430097 -0.648460 -83.655310 -7.230712 3.636500 178.887652 -55.381695 179.833983 13.398076 -2.357579 -0.372752 -0.237013 0.794608 0.000000 0.000000 0.000000 0.000000 0.000000 0.000000 0.000000 1.004777 -10.629130 0.996269 76.357213 17.126560 29.052324 179.682525 64.232569 179.835692 -16.878289 8.058990 -1.351874 0.456327 -0.812719 -0.000000 0.000000 0.000000 0.000000 0.000000 0.000000 0.000000 
2.996019 15.811389 1.001722 -176.517804 -88.671251 -141.172836 4.210968 -3.872207 2.240138 0.685978 -4.091441 -3.141509 -4.650804 -4.084882 -2.945160 9.734693 -13.512163 -5.382216 -2.481290 -0.187255 0.203310 0.000000 0.000000 0.000000 15.932474 -4.712561 -0.743639 -83.340577 -7.955578 2.967034 178.896547 -55.832413 179.832902 13.491380 -2.092991 -0.342770 -0.236678 0.788768 0.000000 0.000000 0.000000 0.000000 0.000000 0.000000 0.000000 1.088638 -10.811074 1.010978 76.365566 17.201030 29.143992 179.688810 64.297820 179.835794 -16.872975 8.039581 -1.348191 0.455182 -0.811370 -0.000000 0.000000 0.000000 0.000000 0.000000 0.000000 0.000000 
2.988624 15.824912 1.012477 178.921809 -88.412110 -136.845154 4.397953 -3.975207 2.090346 0.719808 -4.210301 -3.171027 -4.716515 -4.210641 -2.944558 9.854303 -13.605587 -5.313258 -2.470481 -0.187958 0.231968 0.000000 0.000000 0.000000 16.235273 -4.948744 -0.846999 -82.871384 -8.883457 2.324301 178.928945 -56.389508 179.831912 13.579222 -1.771810 -0.305292 -0.237596 0.782094 0.000000 0.000000 0.000000 0.000000 0.000000 0.000000 0.000000 1.171665 -11.007091 1.020098 76.402310 17.260832 29.230083 179.701554 64.361707 179.835797 -16.869899 8.021417 -1.344810 0.453390 -0.809963 -0.000000 0.000000 0.000000 0.000000 0.000000 0.000000 0.000000 
2.981075 15.840105 1.023487 173.603107 -88.177874 -131.789217 4.583284 -4.093233 1.932120 0.749436 -4.344590 -3.197335 -4.800709 -4.351684 -2.927494 9.966628 -13.700595 -5.242965 -2.455653 -0.188417 0.261170 0.000000 0.000000 0.000000 16.535543 -5.132650 -0.956547 -82.208905 -10.056123 1.717557 178.989117 -57.076809 179.830946 13.664210 -1.387469 -0.259517 -0.240170 0.774555 0.000000 0.000000 0.000000 0.000000 0.000000 0.000000 0.000000 1.240162 -11.216437 1.021847 76.477841 17.294488 29.301617 179.723543 64.422050 179.835737 -16.860567 8.008321 -1.341635 0.450341 -0.808561 -0.000000 0.000000 0.000000 0.000000 0.000000 0.000000 0.000000 
2.973338 15.856855 1.034164 167.564461 -87.980044 -126.040890 4.771683 -4.229548 1.765623 0.774656 -4.498170 -3.219463 -4.906095 -4.511412 -2.890237 10.081506 -13.802376 -5.175181 -2.437116 -0.188607 0.289826 0.000000 0.000000 0.000000 16.842661 -5.261542 -1.070736 -81.342511 -11.491119 1.131808 179.076354 -57.907303 179.830301 13.713675 -0.955282 -0.206643 -0.243152 0.766728 -0.000000 0.000000 0.000000 0.000000 0.000000 0.000000 0.000000 1.311239 -11.444812 1.016466 76.581631 17.306848 29.363174 179.752876 64.475048 179.835561 -16.854716 7.993770 -1.338466 0.446605 -0.806998 -0.000000 0.000000 0.000000 0.000000 0.000000 0.000000 0.000000 
2.965850 15.875260 1.044596 160.449888 -87.840054 -119.248396 4.984662 -4.389145 1.590410 0.798694 -4.677639 -3.237415 -5.035032 -4.695998 -2.831341 10.197529 -13.911652 -5.110744 -2.413705 -0.188442 0.317787 0.000000 0.000000 0.000000 17.145822 -5.337432 -1.184955 -80.244549 -13.213526 0.551711 179.189071 -58.896925 179.830029 13.720748 -0.476665 -0.147270 -0.246306 0.758699 -0.000000 0.000000 0.000000 0.000000 0.000000 0.000000 0.000000 1.381202 -11.693055 1.002894 76.713870 17.293642 29.410720 179.790217 64.517126 179.835288 -16.849707 7.978280 -1.335203 0.442021 -0.805254 -0.000000 0.000000 0.000000 0.000000 0.000000 0.000000 0.000000 
2.958787 15.895166 1.054678 151.880364 -87.784177 -111.031295 5.256849 -4.575875 1.406228 0.827314 -4.889201 -3.251432 -5.189878 -4.910980 -2.749594 10.317720 -14.030539 -5.051969 -2.384546 -0.187833 0.344482 0.000000 0.000000 0.000000 17.435487 -5.367528 -1.292791 -78.891490 -15.234024 -0.052506 179.321899 -60.058767 179.830226 13.676549 0.044904 -0.082099 -0.249103 0.750490 -0.000000 0.000000 0.000000 0.000000 0.000000 0.000000 0.000000 1.453203 -11.962214 0.980678 76.868468 17.254383 29.442983 179.834824 64.545258 179.834937 -16.846239 7.961124 -1.331648 0.436693 -0.803256 -0.000000 0.000000 0.000000 0.000000 0.000000 0.000000 0.000000 
2.952413 15.916503 1.064336 141.330359 -87.846519 -100.862546 5.644438 -4.789021 1.213690 0.871161 -5.135357 -3.262187 -5.372393 -5.158090 -2.645119 10.445672 -14.160961 -5.001745 -2.348947 -0.186692 0.369229 0.000000 0.000000 0.000000 17.701800 -5.363604 -1.386405 -77.261257 -17.547668 -0.723563 179.464973 -61.399374 179.830956 13.578356 0.609442 -0.012129 -0.250957 0.741922 -0.000000 0.000000 0.000000 0.000000 0.000000 0.000000 0.000000 1.530591 -12.250214 0.949665 77.036465 17.191366 29.460490 179.885249 64.557890 179.834545 -16.844559 7.942174 -1.327802 0.430779 -0.800938 -0.000000 0.000000 0.000000 0.000000 0.000000 0.000000 0.000000 
2.946820 15.939058 1.073569 128.111939 -88.074701 -88.050123 6.232007 -5.014540 1.018084 0.948019 -5.405918 -3.269826 -5.583682 -5.426570 -2.519639 10.584649 -14.303739 -4.963396 -2.306119 -0.184905 0.391160 0.000000 0.000000 0.000000 17.933824 -5.334961 -1.456894 -75.332231 -20.131862 -1.515829 179.604707 -62.920704 179.832276 13.428208 1.220667 0.062433 -0.251128 0.732621 -0.000000 0.000000 0.000000 0.000000 0.000000 0.000000 0.000000 1.613808 -12.547094 0.909695 77.205589 17.111106 29.464744 179.939552 64.552004 179.834157 -16.844145 7.921554 -1.323865 0.424501 -0.798280 -0.000000 0.000000 0.000000 0.000000 0.000000 0.000000 0.000000 
2.942150 15.962669 1.082367 111.789524 -88.525992 -72.152408 7.098945 -5.207139 0.835893 1.076432 -5.657807 -3.272027 -5.822846 -5.673646 -2.378039 10.738107 -14.458579 -4.939935 -2.255493 -0.182363 0.409393 0.000000 0.000000 0.000000 18.125536 -5.280574 -1.496587 -73.083132 -22.937826 -2.496311 179.723185 -64.617069 179.834262 13.231842 1.885798 0.141382 -0.248478 0.722013 -0.000000 0.000000 0.000000 0.000000 0.000000 0.000000 0.000000 1.703448 -12.826729 0.861422 77.361809 17.028096 29.460822 179.994324 64.529860 179.833823 -16.844188 7.900457 -1.319833 0.418269 -0.795401 -0.000000 0.000000 0.000000 0.000000 0.000000 0.000000 0.000000 
2.938182 15.987048 1.090630 92.991333 -89.263000 -53.778877 8.205428 -5.285345 0.698394 1.250141 -5.805057 -3.262707 -6.082159 -5.815174 -2.231612 10.911896 -14.624811 -4.931154 -2.197606 -0.179083 0.423805 0.000000 0.000000 0.000000 18.291149 -5.196281 -1.502933 -70.501103 -25.862101 -3.756295 179.800072 -66.465096 179.837273 12.978716 2.605835 0.223395 -0.240826 0.709626 -0.000000 0.000000 0.000000 0.000000 0.000000 0.000000 0.000000 1.807453 -13.046394 0.808705 77.489719 16.964928 29.461837 -179.957580 64.498017 179.833573 -16.845720 7.877085 -1.315599 0.413060 -0.792618 -0.000000 0.000000 0.000000 0.000000 0.000000 0.000000 0.000000 
2.949153 16.019892 1.076033 -153.256966 -85.683462 -168.087335 8.209416 -4.177455 1.354441 1.100537 -4.684654 -3.061577 -6.425632 -4.673239 -2.134312 11.317993 -14.793998 -4.931143 -2.156613 -0.175994 0.425403 0.000000 0.000000 0.000000 18.742078 -4.559748 -1.525976 -67.227927 -28.646725 -5.543473 179.722879 -68.422310 179.842049 12.732129 3.398944 0.310811 -0.218471 0.688488 -0.000000 0.000000 0.000000 0.000000 0.000000 0.000000 0.000000 2.345168 -12.630196 0.803809 77.776291 17.200439 29.576096 -179.997048 64.604341 179.833423 -16.827223 7.860260 -1.312331 0.417265 -0.796018 -0.000000 0.000000 0.000000 0.000000 0.000000 0.000000 0.000000 
